<svg xmlns="http://www.w3.org/2000/svg" viewBox="0 0 1249.84 1250"><defs><style>.cls-1,.cls-2{fill:#956900;}.cls-2{fill-rule:evenodd;}</style></defs><title>Logo</title><g id="Layer_2" data-name="Layer 2"><g id="Layer_1-2" data-name="Layer 1"><g id="Logo"><g id="i_i_i" data-name="i i i"><circle class="cls-1" cx="411.92" cy="265" r="39.6"/><path class="cls-1" d="M387.78,339.54A36,36,0,0,0,390.52,326c0-21.87-17.87-42.08-39.6-39.6-14,1.6-24,7.6-32.4,16.85-1.1,1.21-2,2.6-3.07,3.84C19.53,649.48,350.92,954,350.92,954c-242.31-297.62-45.49-531.81,26-600.4,0,0,1.23-.93,5.63-6.26S387.78,339.54,387.78,339.54Z"/><circle class="cls-1" cx="1043.19" cy="620.54" r="39.6"/><path class="cls-1" d="M990.71,562.37a36.06,36.06,0,0,0,10.35,9.13c18.94,10.94,45.38,5.57,54.09-14.49,5.62-12.93,5.42-24.59,1.61-36.49-.49-1.55-1.25-3-1.78-4.57C906.42,88.48,477,223.21,477,223.21c378.9-61,483.3,226.51,507,322.7,0,0,.19,1.52,2.61,8S990.71,562.37,990.71,562.37Z"/><circle class="cls-1" cx="419.65" cy="989.46" r="39.6"/><path class="cls-1" d="M496.27,973.1a35.92,35.92,0,0,0-13.09,4.4c-18.94,10.93-27.51,36.51-14.49,54.09,8.38,11.33,18.58,17,30.79,19.64,1.59.34,3.25.43,4.85.73,444.48,85.09,542.51-354.17,542.51-354.17C910.25,1056.45,609,1003.09,513.89,975.5c0,0-1.41-.6-8.23-1.74S496.27,973.1,496.27,973.1Z"/></g><g id="Circulo"><path class="cls-1" d="M1247.6,570.88C1220.17,251,951.87,0,624.92,0,283,0,5.13,274.65,0,615.4l53.67-50,53.85,50.08c5-281.43,234.76-508,517.4-508,266,0,485.07,200.64,514.21,458.82L1195.92,619Z"/><path class="cls-1" d="M1195.92,685l-53.59-50.66c-5,281.5-234.72,508.16-517.41,508.16C359,1142.5,140,942,110.74,683.88L53.67,630.79,2.2,678.67C29.42,998.72,297.82,1250,624.92,1250c342,0,619.78-274.64,624.92-615.38Z"/></g><g id="America"><g id="Forma_1" data-name="Forma 1"><path class="cls-2" d="M549.49,350.46l-4.78,1.75-.44,2.81,6.58,5.14,2.74-.16,3.83-3.73c.16.47.32,1,.49,1.42l-1.13,3.07c-3.37,2.05-3.29,1-8.61.66l1.32,6.45c6.48,3.53,15.13-2.52,22.46,1.29h1.26c-1.76,4-15.23,3.67-21.92,3.32-.5,3.22.76,4.3,2,7.3,7.75,1.69,13.45-.42,14,9.3,10.95.32,18.43-1.54,22.58-8,6.88.95,8.47,4.4,16.51,4.65l.77-1.31-4-6.66,6.64-1.33h1c-2.13-6.85-9.2-9.13-11.83-15.15q-2-10.21-3.94-20.43l-6.57-2.64-1.32.66c-1.32,7.21,1.8,9,3.29,14.5l-5.92,3.29h-.66q-.64-5.6-1.31-11.2v-1.32c-4.22,1.83-4.63,5.12-9.2,6.59l-2-8.56v-.76l-7.93,5.16-.66-7.74-10.56,3.87C550.32,345.23,549.5,345.73,549.49,350.46Zm44.15-41-5.25,5.91,2.63.65C592.74,314.45,594.36,311.56,593.64,309.49Zm-63,55.14c11.26-6.09,13.31-20.5,26.26-26.26a9.83,9.83,0,0,0,1.31-5.25l-7.87-6.56c-2.53-2.29-3.57-.47-7.22,1.31q-2-3.28-3.94-6.57l-5.26-.65L525.37,322l-.66,2,3.94,3.94c-3.34,6.43-7.76,15.55-7.87,24.29C524.53,356.84,528.89,357.55,530.62,364.63Zm97.2-17.72-3.94-3.29c-2.21-3.73,3.5-13.54-1.31-17.06-.88,2.4-1.75,4.81-2.63,7.22l-4.59-3.94c-5.9,4.33-2.38,6.51-.61,12.64l-.24.59c-3.57,1.93-4.37.28-8.34-2.07.63,2.83,11.3,17.46,13.78,20.35C624.72,358.39,627.68,354.52,627.82,346.91Zm5.21-3.29c.15.31.3.61.46.91,0-.34-.07-.68-.11-1ZM816.29,743.48c-1.15-5.14-2.52-5.28-5.9-7.88-3,.61-1.93-.09-3.27,2l-6.56,5.91h-.89c.66-2.18,1.31-4.36,2-6.54v-.87l-.66-.44-9.82,3.92-.82-1.09,6.71-8.72c-2.53-3.26-4.58-4.85-5.32-10.38l-1.89-.73c-2.27,2-3.68,5.22-4.58,8.5-2.56.36-3.6-.55-5.89-2-3.16.74-2.65.88-3.87,3.16l-1.3.18c-5.35-5.52-1-10.49-4-17.72q-6.54-5.89-13.1-11.77l3.28-5.89v-.79c-13.44,3.18-20-2.07-36.67-3.28l-.66,3.28-.63.07q-1-2.34-2-4.66c-10.53,4.76-12.57,6.45-20.3,14.44l-9.82-3.28-.15.15L678,697.72c-3-4.83-1.13-10.27-.74-17.2-6.6-1.7-15-4.09-17.68-9.85-2-3.39,3.18-11.15,4.58-16.41v-1c-3.61-1.22-9.58-1.5-13.12.65-2.75,1.89-4.51,8.8-5.9,11.82-5.6.16-10.51,0-13.77-2-10.66-5-5.46-25.95-5.25-36.11l9.84-6.56c10-3,15,6.84,21.64-2,7.31.42,10.26,3.24,18.37,3.94,3.24,4.43,5.92,11.52,8.53,16.41l2.62.66,1.31-1.32c2.19-21.66-13.45-30.24,15.09-40.7,6.31-12.13,1.52-26.51,23-28.88v-.66l-3.94-2c1.93-8.32,11.86-14.7,19.68-17.07-2,3-3.25,3.84-3.28,9.19l.66.66,23-11.82c.29-2.66-1-4.8-2-7.88l-1.31-.65c-6.09,8.31-8.23,1.46-15.09,3.28h-5.75c-.26-1.43-.2-1.09-.45-2.53,13.94-5.16-3.16-.58,26.82-4.57.47-1.5.93-3,1.4-4.5v-.34l-11.46-.71.66,1a11.12,11.12,0,0,1-3-1.17l-16-1v-.46c1.86-2,4.14-2.4,7.22-3.28,5,.65,5.82,3,8.81,4.73l2.35.15-3.94-6.2,7.88,2c3.8-2.92,6.51-7.24,11.81-8.53q-2.15,6.9-4.28,13.81c.08,2.38.05,1.6.15,4.29l-1.55.21-.22.72,11.81,2.63-3.94,2v2l5.86,1.62,1.37-2.29c3.36-1.82,2.26-1.27,5.92.66l2.64-1.32c.32-3.41.41-4.41.73-7.82-3.9-3-7.32-6.3-12.57-7.95-1.3-2.29.84-14.71,1.31-21.69l-7.23-4.61-9.2,4.61v-.64s5-3.5,7.73-5.25v-.66c-12.05-10.42-17.23-21.15-22.37-38.07l-2-1.32c-3.28,5-6.56,10.07-9.85,14.88h-1.31c-6.54-4.16-5.69-7.87-6.56-17.5l-9.85-4.6c-2.32-2.76-1.85-7.59-5.25-9.19-.72-.34-10.18.61-15.1.66-2.25,4.83-1.81,14.75,0,19l-4.6,5.25c5.91,8.35,14,22.3-.65,28.88-3.44,7.39,1.74,14.9-1.32,21.67-4.87-1.23-7.72-5.87-10.5-9.19,1.53-3,.85-5.13,2-9.85a292.54,292.54,0,0,1-21-28.23c-3.23-1-7.52-2.86-11.16-1.31-3.69,2.25-7.91,11.24-9.19,15.75l-1.31.66c-17.79-17,3.84-37.9,10.5-49.89,2.59-4.67,8.8-4.29,11.16-9.85.88-.66,2.63-2.15,2.63-2.15h.63q-1.35,4.71-2.69,9.41c3.36,2.53,6,1.2,7.4,6.06h.57l5.91-9.84c3.29,2.43,6,4.47,11.15,5.25-1.69-9-9.57-10.11-14.43-15.75,7.62-7.69,9.35-20.59,9.84-34.12l-11.23-7c0-.52,0-.34.07-.86l9.85-3.94c4.75.3,4.84,2.3,6.56,5.25h.66s3.37-4.64,4.59-6.87h1.32c8.59,6.81,18,22.38,20.35,34.88l10.5,2,2,1.32c-4.83,8.08-6.87-.45-15.1-2-2.15,3.7-1.69,5.94-.66,10.5-12.74-1-12.66,1.41-16.29,10.51v2c3.6-1.75,7.32-3.5,11-5.25,5.69.93,12.25,9.31,13.79,14.45,4.8,3.33,12.8,5.62,20.35,5.9l-11.16-13.13,14.44,10.51,2.63,1.31c-.66-2.41-1.32-4.81-2-7.22l4.6-2v-1.51c-5.86-7.53-10.63-10.53-14.19-21.28v-3.51c6.35,1.8,9.5,4.22,10.81,11.13,2.48,1.86,3.77,3.54,6.08,3.93,1.41-7.75,2.39-11,6.08-15.72C750.12,397.12,735.19,394,729,383l1.63-5.3,3.81-1.84c-1.62-4.38-5.4-2.38-8.1-.66H723.6c1-3.17,1.47-3.09,4.73-3.92-3.13-3.87-7.4-3.66-12.85-3.93-.42-1.5-.41-1.48-.83-3l4.23-2.93-3.12-6.79-2.26.15-2,6.64h-.86c-6.86-7.3-9.36-17-11.48-25.7-3.58-1.93-8.27-2.14-13.34-1.34l-.22.62c3.13,3.75,7.48,5.71,12.88,7.31-2.64,3.36-4.32,5.37-5.42,10.66l-1.47.39-3.91-4.46-4,5.27c.6-8.52,1.13-14.27-2.71-21.08v-1.32H680c-4.68,3-9.46,6.81-12.24,11.76,3.46,6.23,4.05,11,2.6,20.7l-.58.26c-7.21-4.75-5.76-15-8.47-21,2.92-4.09,7-7.58,8.38-13.07l-11.6,2.62c-5.33,3-10.73,17.23-6.45,25.47,1.63,2.78,5.12,3.52,8.94,3.91l.08.67-7.73,2.61,14.18,9.14c1.76,4.07,1.09,7.72,3.23,11.11-4,3.83-6.19,8.19-7.79,14.57l-1.26.43a8.77,8.77,0,0,1-3.85-5.86c-.48-2.71,2-6.08,1.29-9.14-1.3-2.29-2.79-2.82-5.16-3.92q-1,4.24-1.93,8.49v1.8h-.89c-3.87-3-1.12-6-2.63-10.66-1.55-2.18-3.48-2.67-6.56-3.28-1.25-3.2-.07-4.16.65-8.54l-7.88-11.81c.66-5.37,2.87-5.85,4.6-9.85l-5.25-3.28c-.07-.14-.14-.27-.2-.41a32.08,32.08,0,0,1,.2,7c-.63,3.06-5.05,5.73-5.91,7.88-1.88,4.69,1.81,7,0,11.82l9.19,7.88c-.07,13.12-6.18,14-5.25,23l-4.6-2c-.36-4.85.16-6.3-2-10.5a37.19,37.19,0,0,0,4.6-5.25c-.66-2.63-1.31-5.26-2-7.88l-2.63-2L616,382.36l-.65,1.31,9.19,6.57c-4.89,1.36-5.42,1.93-5.25,7.22-12.11-2.29-17.83-4.72-26.26-8.54l-5.25,5.91c1.09,2.63,2.18,5.25,3.28,7.88-.66,1.31-1.32,2.62-2,3.94l-2,1.31c-3.05-5.27-4.92-9.62-10.5-12.47-4.53,2.56-10.45,1.62-17.07,1.31l-.66-1.31c1.87-2.26,3.06-2.34,3.94-5.91-3.3-3.73-21.4-10.06-27.57-12.47-3.42.89-3.63,2.15-5.91,3.93L526,373.17l-1.32-.66c-1.09,2.41-2.18,4.81-3.28,7.22-3.17-1.43-5-6.36-5.91-9.85l-2.62-2c-1.34,3.13-.64,3.3,0,7.23-.66.65-1.32,1.31-2,2l-7.22-2q-3.94,6.56-7.88,13.13l-3.28-.66c-.88-2.63-2.63-7.71-2.63-7.71h-4.15v8.54c-6.88-1.2-8.06-6.71-13.11-9.19l-12.45-2-2.62-3.94c-3.58-1.27-7.06,3.43-8.52,2.62-5.32-2.93-11.64-4-18.35-7.22l-3.28,2.63-2.62-5.25c-3.5-1.88-6.33-1.39-6.55,3.93-3.22-4.1-3.33-5.58-7.87-8.53-7.79,4-14.38,6.15-21.62,11.16q-3.93,6.24-7.87,12.47c-3.6,2.18-6.44,1.58-9.25,4l-.21,2.37c3.26,4.07,11.25,12.81,16.67,13.32.66,2.19,1.31,4.38,2,6.56-1.27,1.57-.39,1.09-2.62,2l-5.25-3.28c-3.38-1.68-8.18,5.85-15.07,6.57v.44c2.39,2.89,4.37,3.25,5.29,7.93,4.94,2.88,10.67,3.83,15.16,1.41l5.34,3.11v2c-3.78,1.59-5.86,1.66-7.23,5.91l-5.26-.65-6.57,10.51c.61,9.37,5,11.09,9.2,16.43l5.91-2c.55,3.37-.94,8.15,2,10.52,5.42,2.05,11.39-.49,16.43-2.63-1.86,4.1-1.45,8.6-4.6,11.83-5.68,5.81-34.49,25.81-43.38,26.29V511l1.31.66c5-3.68,28.33-13.72,30.11-17.72l10.77,3.81.35-.53-5.23-5.91C418,482,417.27,459.64,430.11,453.2l2.62-1.31c-.83,4.51-11.46,24.48-16.37,25.6-1.1,3.18.55,4.74,0,9.85h.21l6.75-3.57c2.64-4,2.52-7.65,2.2-13.48C431.31,466,436,462,441.93,461.1v-6.56l2.28-1c7.43,6.47,26.79,13.86,37.1,18.09,4.67,24,26.56,22.45,33.47,42l-.66,9.84c1.81,4.39,11.33,8.35,13.79,19,2.85,12.38-7.23,18.85-3.28,29.52l15.75,28.86,11.15,4.59c5.18,6.09,3.44,14.49,11.16,18.37.53,3.32,0,4.09-.65,7.21,4,1.8,16.27,14.81,17.72,18.37h2l1.17-2.19-20.2-29.95v-3.13l1.07-.56c5.59,3.86,3.51,5.64,6.15,11l26.93,27.57c-.66,2.19-1.31,4.38-2,6.56,6.69,9,23.82,14.74,34.8,19l4.6-4.59c9,1.2,14.07,12.46,25.61,11.16,6.42,9.85,11.57,17.48,22.33,23,6.26-.07,6.31-1.38,10.45-6.59l3.05.62c2,7,4.11,8.52,4.23,15.16l-13.79,16.42q.66,5.91,1.31,11.81c-.57,1.76-3.56,4.67-4.6,7.23q4.6,5.9,9.2,11.81c4.68,7.58,5,17.86,10.51,24.29,5,5.82,15.94,6.05,20.35,12.48,3.69,9.2.16,26.62-2.62,36.1-1.33,2.4-.51,1.7-3.94,2,1,2.79,2,3,3.94,4.6-2.49,7.87-.84,14.16-3.29,22.32l-5.91,11.81c-1.26,5.37,2.56,19.62-1.31,28.89l-3.94,3.28c.66,2.41,1.31,4.82,2,7.22-.72,3.18-4.93,8-5.25,11.16.21.66.43,1.32.65,2v6.49l.55,0,1.53-9.14.8-.68h2c-5.5,36.43-.54,36.6,26.88,55.12,4.43-5.4,4.35-8.51,13.65-7.88l.12-.65-11.15-3.28c-5.21-3.43-6.12-14.19-8.52-20.34,4-4.95,8-11.34,11.8-16.41-.79-6.94-4.32-6.17-5.9-11.82l.65-1.3,6.56-2.63c1.49-5.9-.37-8.19,6.67-9.87.25-1.21.29-1.38.54-2.59l-6-4.55.15-.7,9.18-2c.65-3.06,1.31-6.13,2-9.19l15.07-3.28L774,875.1c-.76-1.22-1.53-2.44-2.29-3.67l13.76-4.59c7-5.56,17.66-23.76,17.7-36.75,6.44-4.73,13.93-10.92,24.26-9.84,7.77-11,9.24-22.2,10.49-40.68l14.42-12.47V755.94C844.1,750.76,828.38,739.74,816.29,743.48ZM643.53,344.94c4.26-5.65,2.82-11.52,8.55-15.76v-2.62a31.61,31.61,0,0,0-20.36,3.93c.28,2.24,1.13,8,1.66,13C638,341.76,640,343,643.53,344.94Zm-52.47-12.48c1.43,2.56,2.46,4,5.25,5.26,2.41,1.2,2.42.29,3.94-2.63-1.56-3.07-1.31-3.78-6.13-5l-3.06,2.39Zm25.56-16.41c4.06-2.22,10.09-9.82,7.88-15.75-4.23,4.57-13.18,5.6-11.16,14.44Zm70.9,131.75.51.13c1.82-1.68,3-3.06,1.07-5.11l-2.71,1.59ZM674.31,649.6l-1.23,3.08c5.36,1.08,6.47-1.65,13.13,0,6.46,1.6,10.37,10.38,19.69,6.56h1.31c-2.61-8.83-17.06-12.46-27.34-13.16Zm29.81-249.36c2.07-3.24,2.72-7-1.5-8.9l-4.74,2c-.2,2.38-.24,2.86-.43,5.24,2,1.29,2.21,1.75,6.07,1.93Zm4.4,264.41c2.66,2.9,8.08,2.8,11.82,4.59C723,666.93,725,666,730.19,666l.65-1.31c-3.48-2.33-5.33-4.4-11.16-4.6Zm-36.76-221.9c1.35,1.44.89,1.28,3.29,2l5.25-3.93c.22-.66.43-1.32.65-2l-5.9-.66Zm-8.53-153,3.94,3.28c3.65-.61,2.91-.22,3.94-3.28,5.76,2.36,11.56,2.75,17.72,5.91l6.57-10.5c-10.5-3.28-17.82-3.55-31.51-4.6a29.31,29.31,0,0,1-12.48,7.22C655.05,294.36,658,294.3,663.23,289.79ZM631.93,320l7.22-1.31,1.31-2.63a23.11,23.11,0,0,0-5.91-8.53c.61-5.93,1.39-9.42,3.29-13.79l2-1.31c1.36,4.74,3,7.33,4.6,10.5.47.95-3.36,9.15-1.31,13.13,1,1.61,19.24,7.2,23.63,5.91,1.92-.57,5.79-3.66,8.53-3.28s6.35,3.14,9.85,2c2.6-1.19,3.11-1.56,3.94-4.6-2.38-1.07-2.29-.72-3.28-3.28l3.28-3.28v-.66L681.16,301l-5.25,2.63c-2.33-1-1.82-1.11-3.28-2.63-.66,1.32-1.31,2.63-2,3.94l-9.85,2.63-1.31-2.63-3.94,2.63-10.5-11.82a15.25,15.25,0,0,0,5.25-5.25l-16.41-2-2.63,3.94c.89,8.14,2.59,11.05-3.94,18.38C627.56,316.34,629.09,317.33,631.93,320ZM736.6,300.3c9.59-7.78,20.88-17.8,37.42-18.39l-1.32-4.59c-6.76-3.52-27.32-6.79-36.76-6.57-3.12,2.39-7.91,3.78-13.13,3.94l-2.18,2.92.22.36c5.61-.74,8-5,13.14-3.27l.12,1.4c-3.69,2.13-12.59,5.71-15.89,5.81C719.8,290.36,725.63,300.32,736.6,300.3Zm-42,135.31,1.46.35c.51-1,1-2,1.51-3l-1-.62c-.66.88-1.32,1.75-2,2.63Zm-3.2-158.85h1.29l0,0-1.49-1.49-4.33,2.16A5.49,5.49,0,0,0,691.43,276.76Z"/></g></g></g></g></g></svg>